<mxfile host="65bd71144e">
    <diagram id="NjErTtv8XZUbQAoS0RAV" name="Page-1">
        <mxGraphModel dx="1216" dy="785" grid="1" gridSize="10" guides="1" tooltips="1" connect="1" arrows="1" fold="1" page="1" pageScale="1" pageWidth="827" pageHeight="1169" math="0" shadow="0">
            <root>
                <mxCell id="0"/>
                <mxCell id="1" parent="0"/>
                <object label="客户端" id="50">
                    <mxCell style="shape=ext;double=1;rounded=1;whiteSpace=wrap;html=1;align=left;" vertex="1" parent="1">
                        <mxGeometry x="30" y="180" width="250" height="380" as="geometry"/>
                    </mxCell>
                </object>
                <mxCell id="52" value="服务端" style="shape=ext;double=1;rounded=1;whiteSpace=wrap;html=1;align=left;" vertex="1" parent="1">
                    <mxGeometry x="360" y="90" width="430" height="510" as="geometry"/>
                </mxCell>
                <mxCell id="54" value="Web浏览器（Vue）" style="shape=ext;double=1;rounded=0;whiteSpace=wrap;html=1;" vertex="1" parent="1">
                    <mxGeometry x="77.5" y="220" width="155" height="80" as="geometry"/>
                </mxCell>
                <mxCell id="55" value="Electron" style="shape=ext;double=1;rounded=0;whiteSpace=wrap;html=1;align=left;" vertex="1" parent="1">
                    <mxGeometry x="80" y="340" width="170" height="170" as="geometry"/>
                </mxCell>
                <mxCell id="57" value="&lt;span&gt;Web浏览器（Vue）&lt;/span&gt;" style="shape=ext;double=1;rounded=0;whiteSpace=wrap;html=1;" vertex="1" parent="1">
                    <mxGeometry x="132.5" y="350" width="100" height="60" as="geometry"/>
                </mxCell>
                <mxCell id="58" value="FFMPEG直播推流" style="shape=ext;double=1;rounded=0;whiteSpace=wrap;html=1;" vertex="1" parent="1">
                    <mxGeometry x="132.5" y="420" width="100" height="60" as="geometry"/>
                </mxCell>
                <mxCell id="61" value="web容器&lt;br&gt;（Fastapi）" style="shape=ext;double=1;rounded=0;whiteSpace=wrap;html=1;align=left;" vertex="1" parent="1">
                    <mxGeometry x="470" y="120" width="240" height="300" as="geometry"/>
                </mxCell>
                <mxCell id="62" value="视图层（View）" style="shape=ext;double=1;rounded=0;whiteSpace=wrap;html=1;align=left;" vertex="1" parent="1">
                    <mxGeometry x="540" y="140" width="150" height="80" as="geometry"/>
                </mxCell>
                <mxCell id="64" value="业务逻辑层（Controller）" style="shape=ext;double=1;rounded=0;whiteSpace=wrap;html=1;align=left;" vertex="1" parent="1">
                    <mxGeometry x="540" y="230" width="150" height="80" as="geometry"/>
                </mxCell>
                <mxCell id="65" value="数据库（Mysql）&lt;br&gt;" style="shape=ext;double=1;rounded=0;whiteSpace=wrap;html=1;align=left;" vertex="1" parent="1">
                    <mxGeometry x="470" y="440" width="270" height="120" as="geometry"/>
                </mxCell>
                <mxCell id="66" value="Model层（Sqlalchemy+Alembic）" style="shape=ext;double=1;rounded=0;whiteSpace=wrap;html=1;align=left;" vertex="1" parent="1">
                    <mxGeometry x="540" y="320" width="150" height="80" as="geometry"/>
                </mxCell>
            </root>
        </mxGraphModel>
    </diagram>
</mxfile>
